<svg id="Layer_1" data-name="Layer 1" xmlns="http://www.w3.org/2000/svg" viewBox="0 0 86.4 94.82"><defs><style>.cls-1{fill:#fff;}</style></defs><g id="Layer_2" data-name="Layer 2"><path class="cls-1" d="M86.25,165.64c.45-1.21-10.59-3-14.8-10.59S75,143.33,75.15,124c0-4.28-.3-9.56,3.27-13.64.58-.67,3.13-3.58,6.73-3.79,7.39-.43,13,10.86,14.62,14.08,3.26,6.53,4,12.19,4.78,18.62,1,8.67,2.08,19.86,2.8,33.09a2.41,2.41,0,0,0,1.79.24,2.62,2.62,0,0,0,1.69-2.69,23.2,23.2,0,0,1-.42-9.55,26.77,26.77,0,0,1,5.53-11.7,27.32,27.32,0,0,0-3.64,6.63,23.46,23.46,0,0,0-1.54,5.06,21.19,21.19,0,0,0,.39,8.92,19.24,19.24,0,0,1,2-7.69,22.27,22.27,0,0,1,3.21-4.59,26.31,26.31,0,0,1,5.48-5,48.74,48.74,0,0,0-5.42,5.69,22.89,22.89,0,0,0-3,4.44,18.1,18.1,0,0,0-1.75,7.74,7.13,7.13,0,0,1,2.25.35c1.06.35,2.64.86,2.94,2.15a2.77,2.77,0,0,1-1.38,2.83c-1,.54-1.66,0-2.73.28-1.22.37-1.88,1.58-2.68,3.39-2.42,5.46-1.9,7-3.52,8.6s-2.56.52-5.28,2.11c-4.15,2.43-3.43,5.94-8.22,9.67-1,.77-3.62,2.82-4.92,2-1.11-.71-1-3.41-.13-5.39,1.36-2.89,3.9-2.79,4.83-5.63.54-1.66.3-3.58-.25-3.73s-1.28,1.5-2.07,2.54c-2.69,3.59-7.78,2.43-13.35,3.63-9.75,2.11-12.92,9.73-16.85,7.81-2.65-1.29-2.77-5.51-5.38-5.68-1.77-.12-2.61,1.79-3.84,1.38-2-.66-.56-5.88-2.77-7.22-2.71-1.64-7.5,4.65-10.74,3-2-1-2.8-4.74-1.56-6.41,1-1.4,3.58-1.34,8.66-1.21,3.88.1,4.91.51,5.89-.35,1.91-1.68-.07-5,1.73-6.58,2-1.82,6.1,1.13,7.62-.52s-1.71-5.82-.17-7.45,5.48,1.61,8-.35c.79-.62.79-1.25,1.25-1.95C72,162.55,85.73,167,86.25,165.64Z" transform="translate(-35.46 -106.52)"/></g></svg>